<svg width="371" height="156" viewBox="0 0 371 156" fill="none" xmlns="http://www.w3.org/2000/svg">
<path d="M29.7512 69.2376L32.5501 56.3834C32.5501 56.2797 32.5501 56.0724 32.4464 55.9687C32.3428 55.8651 32.2391 55.7614 32.0318 55.7614H8.91499L7.67104 51.2002C7.56738 50.7856 7.15273 50.4746 6.73808 50.4746H1.03663C0.518314 50.4746 0 50.8893 0 51.5112C0 52.0295 0.414651 52.5479 1.03663 52.5479H5.90877C5.90877 52.5479 11.7139 73.5914 11.8175 73.6951C11.6102 74.1097 11.5066 74.5244 11.5066 74.939C11.5066 76.4939 12.7505 77.7379 14.3055 77.7379C15.8604 77.7379 17.1043 76.4939 17.1043 74.939C17.1043 74.628 17.1043 74.4207 17.0007 74.1097H26.0193C25.9157 74.317 25.9157 74.628 25.9157 74.939C25.9157 76.4939 27.1596 77.7379 28.7146 77.7379C30.2695 77.7379 31.5135 76.4939 31.5135 74.939C31.5135 73.5914 30.4768 72.4511 29.2329 72.1401C29.1292 72.0365 13.4762 72.0365 13.4762 72.0365L12.7505 69.5485H29.2329C29.4402 69.6522 29.6475 69.4449 29.7512 69.2376ZM28.7146 73.9024C29.3365 73.9024 29.7512 74.4207 29.7512 74.939C29.7512 75.561 29.2329 75.9756 28.7146 75.9756C28.0926 75.9756 27.6779 75.4573 27.6779 74.939C27.6779 74.317 28.1963 73.9024 28.7146 73.9024ZM14.3055 73.9024C14.9274 73.9024 15.3421 74.4207 15.3421 74.939C15.3421 75.561 14.8238 75.9756 14.3055 75.9756C13.6835 75.9756 13.2688 75.4573 13.2688 74.939C13.2688 74.317 13.7871 73.9024 14.3055 73.9024Z" fill="#292929"/>
<path d="M100.76 100.233C100.449 98.8851 100.449 96.7082 100.449 94.2203C100.449 86.2382 100.553 74.1097 91.3269 59.7006L85.7291 50.8892C84.7961 49.3343 83.2412 48.2977 81.4789 47.883C79.7167 47.4684 77.8507 47.7794 76.2958 48.816C76.2958 48.816 76.1921 48.816 76.1921 48.9197C75.2592 49.5416 74.5335 50.2673 74.0152 51.2002C73.1859 50.5783 72.2529 50.1636 71.32 49.9563C69.454 49.5416 67.5881 49.8526 66.0332 50.8892C65.9295 50.8892 65.9295 50.9929 65.8259 50.9929C64.6856 51.8222 63.7526 52.8588 63.2343 54.2065C61.2647 53.2735 58.8804 53.3772 56.9109 54.5174C56.8072 54.5174 56.7035 54.6211 56.5999 54.6211C55.7706 55.1394 55.0449 55.8651 54.5266 56.6944L45.508 42.4926C44.4713 40.834 42.7091 39.59 40.7395 39.1754C38.7699 38.7607 36.8003 39.0717 35.038 40.212C35.038 40.212 35.038 40.212 34.9344 40.3157H34.8307C33.1721 41.3523 31.9281 43.1145 31.5135 45.0841C31.0988 47.0537 31.4098 49.0233 32.5501 50.7856L47.5812 74.5243C46.8556 74.8353 46.1299 75.3536 45.4043 75.872C45.0933 76.0793 44.6787 76.3903 44.3677 76.5976C42.6054 77.7379 41.3615 79.5002 40.8431 81.5734C40.3248 83.6467 40.7395 85.8236 41.8798 87.5858L47.1666 95.8789C47.2702 95.9825 47.3739 96.1898 47.4776 96.2935C53.801 105.105 61.6793 107.385 66.9661 108.94C68.4174 109.355 69.6614 109.77 70.5943 110.184C70.8017 110.288 70.9053 110.288 71.1126 110.288C73.6006 110.806 74.3262 112.05 75.6738 114.227L76.1921 114.953C76.6068 115.575 77.2287 115.886 77.9544 115.886C78.369 115.886 78.68 115.782 79.0947 115.575C80.0276 114.953 80.3386 113.709 79.7167 112.776L79.302 112.05C77.8507 109.666 76.2958 107.178 72.1493 106.245C71.009 105.727 69.765 105.416 68.2101 105.001C62.8196 103.446 55.5632 101.269 49.8618 92.2507L45.6116 85.3053C45.0933 84.476 44.886 83.4393 45.0933 82.4027C45.3006 81.3661 45.9226 80.5368 46.7519 80.0185C47.1666 79.7075 47.5812 79.5002 47.8922 79.1892C48.6178 78.6709 49.6545 78.0489 49.8618 77.9452C49.8618 77.9452 49.9655 78.0489 50.2764 78.3599L56.3925 88.0005C56.8072 88.6225 57.4292 88.9335 58.1548 88.9335C58.5695 88.9335 58.8804 88.8298 59.2951 88.6225C60.2281 88.0005 60.5391 86.7565 59.9171 85.8236L53.801 76.1829L36.1783 48.505C35.66 47.7794 35.5563 46.8464 35.7637 45.9134C35.971 44.9805 36.4893 44.2548 37.3186 43.7365C37.3186 43.7365 37.3186 43.7365 37.4223 43.6329H37.5259C38.2516 43.1145 39.1845 43.0109 40.1175 43.2182C41.0505 43.4255 41.7761 43.9438 42.2944 44.7731L54.7339 64.3654L60.539 73.4877C60.9537 74.1097 61.5757 74.4207 62.3013 74.4207C62.716 74.4207 63.027 74.317 63.4416 74.1097C64.3746 73.4877 64.6856 72.2438 64.0636 71.3108L58.2585 62.1885C57.4292 60.8409 57.8438 59.0786 59.1914 58.1456C60.5391 57.3163 62.3013 57.731 63.2343 59.0786L69.0394 68.2009C69.454 68.8229 70.076 69.1339 70.8017 69.1339C71.2163 69.1339 71.5273 69.0302 71.942 68.8229C72.8749 68.2009 73.1859 66.957 72.5639 66.024L67.4845 58.353C67.0698 57.731 66.9661 56.9017 67.0698 56.176C67.2771 55.4504 67.6918 54.7248 68.3138 54.3101C68.9357 53.8955 69.765 53.7918 70.4907 53.8955C71.2163 54.1028 71.9419 54.5174 72.3566 55.1394L74.3262 58.1456L78.2654 64.2617C78.68 64.8837 79.302 65.1947 80.0276 65.1947C80.4423 65.1947 80.7533 65.091 81.1679 64.8837C82.1009 64.2617 82.4119 63.0178 81.7899 62.0848L77.8507 55.9687C77.4361 55.3467 77.3324 54.6211 77.5397 53.8955C77.7471 53.1698 78.1617 52.5479 78.68 52.2369C79.302 51.8222 80.0276 51.7185 80.7533 51.9259C81.4789 52.1332 82.1009 52.5478 82.4119 53.0662L88.0097 61.8775C96.6137 75.3536 96.51 86.7565 96.51 94.2203C96.51 97.1228 96.51 99.4034 96.9247 101.166C97.132 102.099 97.9613 102.721 98.8942 102.721C99.1016 102.721 99.2052 102.721 99.4126 102.617C100.346 102.41 101.071 101.269 100.76 100.233Z" fill="#292929"/>
<path d="M132.02 119.398C127.359 119.398 123.747 117.562 123 113.627L127.863 112.255C128.489 114.474 130.063 115.342 132.02 115.342C133.453 115.342 135.007 114.898 134.966 113.263C134.946 111.104 131.677 110.923 128.388 109.752C125.906 108.885 123.525 107.553 123.525 104.062C123.525 99.804 127.056 97.8465 131.657 97.8465C135.693 97.8465 139.063 99.3801 139.87 103.335L135.37 104.344C134.744 102.407 133.372 101.721 131.677 101.721C130.143 101.721 128.832 102.266 128.832 103.557C128.832 105.192 131.233 105.515 133.836 106.221C137.045 107.089 140.556 108.481 140.556 112.921C140.556 117.683 136.5 119.398 132.02 119.398ZM154.303 97.8474C158.944 97.8474 161.729 100.43 161.729 105.617V118.995H155.897V106.565C155.897 103.518 154.202 102.509 152.124 102.509C149.965 102.509 147.604 103.578 147.563 107.554V118.995H141.752V88H147.563V100.733C149.036 98.9372 151.357 97.8474 154.303 97.8474ZM174.003 119.398C167.404 119.398 162.642 115.382 162.642 108.602C162.642 101.862 167.364 97.8466 174.003 97.8466C180.682 97.8466 185.384 101.862 185.384 108.602C185.384 115.383 180.662 119.398 174.003 119.398ZM173.943 114.777C177.313 114.777 179.613 112.315 179.613 108.602C179.613 104.889 177.312 102.427 173.943 102.427C170.694 102.427 168.413 104.889 168.413 108.602C168.413 112.315 170.694 114.777 173.943 114.777ZM198.889 97.8474C204.358 97.8474 208.878 101.863 208.878 108.664C208.878 115.464 204.358 119.48 198.889 119.48C196.185 119.48 193.764 118.43 192.533 116.534V129.085H186.721V98.2508H192.23L192.392 101.036C193.542 98.9774 196.064 97.8474 198.889 97.8474ZM197.578 114.656C200.625 114.656 203.067 112.436 203.067 108.663C203.067 104.889 200.625 102.67 197.578 102.67C194.47 102.67 192.049 105.031 192.049 108.663C192.049 112.295 194.47 114.656 197.578 114.656ZM230.581 97.8474C235.222 97.8474 238.007 100.43 238.007 105.617V118.995H232.175V106.565C232.175 103.518 230.48 102.509 228.401 102.509C226.242 102.509 223.881 103.578 223.841 107.554V118.995H218.029V88H223.841V100.733C225.314 98.9372 227.635 97.8474 230.581 97.8474ZM260.128 108.32L260.067 109.712H244.69C244.933 113.163 247.233 114.817 249.998 114.817C252.076 114.817 253.69 113.849 254.477 112.013L259.805 112.8C258.433 116.997 254.699 119.398 250.038 119.398C243.338 119.398 238.96 115.443 238.96 108.623C238.96 101.802 243.459 97.8065 249.856 97.8065C255.728 97.8065 260.107 101.055 260.128 108.32ZM249.898 101.923C247.254 101.923 245.418 103.154 244.853 105.918H254.377C254.075 103.275 252.279 101.923 249.898 101.923ZM267.136 101.539C268.185 99.7031 270.909 98.008 273.916 98.008V103.194C269.517 103.194 267.418 104.486 267.418 108.885V118.995H261.566V98.2504H267.136L267.136 101.539ZM293.857 108.32L293.797 109.712H278.42C278.662 113.163 280.963 114.817 283.727 114.817C285.806 114.817 287.42 113.849 288.207 112.013L293.534 112.8C292.162 116.997 288.429 119.398 283.768 119.398C277.068 119.398 272.689 115.443 272.689 108.623C272.689 101.802 277.189 97.8065 283.586 97.8065C289.458 97.8065 293.837 101.055 293.857 108.32ZM283.627 101.923C280.984 101.923 279.147 103.154 278.582 105.918H288.107C287.804 103.275 286.009 101.923 283.627 101.923Z" fill="#292929"/>
<path d="M149.185 77.955C147.792 77.955 146.49 77.7167 145.28 77.24C144.07 76.7633 142.53 75.8833 140.66 74.6C138.827 73.3167 136.205 71.2817 132.795 68.495C128.688 68.495 125.462 67.3033 123.115 64.92C120.805 62.5 119.65 59.1633 119.65 54.91C119.65 51.8667 120.255 49.2267 121.465 46.99C122.675 44.7167 124.398 42.975 126.635 41.765C128.908 40.555 131.548 39.95 134.555 39.95C138.735 39.95 141.98 41.1417 144.29 43.525C146.6 45.8717 147.755 49.1717 147.755 53.425C147.755 56.615 146.967 59.4383 145.39 61.895C143.813 64.315 141.687 66.075 139.01 67.175V67.615C143.667 70.6583 147.59 72.18 150.78 72.18C151.623 72.18 152.43 72.1067 153.2 71.96C153.97 71.85 154.465 71.7767 154.685 71.74L155.07 72.07L155.62 74.16C155.363 74.3433 154.795 74.7283 153.915 75.315C153.072 75.9383 152.173 76.525 151.22 77.075C150.267 77.6617 149.588 77.955 149.185 77.955ZM133.895 64.37C135.875 64.37 137.397 63.6367 138.46 62.17C139.523 60.7033 140.055 58.5767 140.055 55.79C140.055 52.05 139.468 49.245 138.295 47.375C137.158 45.505 135.508 44.57 133.345 44.57C131.402 44.57 129.917 45.285 128.89 46.715C127.863 48.145 127.35 50.2717 127.35 53.095C127.35 56.8717 127.9 59.695 129 61.565C130.137 63.435 131.768 64.37 133.895 64.37ZM157.706 68.66C157.266 66.9733 156.349 63.545 154.956 58.375C153.599 53.205 152.444 49.135 151.491 46.165C151.197 45.285 150.812 44.6433 150.336 44.24C149.859 43.8 149.217 43.5433 148.411 43.47C148.337 43.3233 148.264 43.2133 148.191 43.14L148.576 40.335C148.979 40.335 149.712 40.3533 150.776 40.39C151.876 40.4267 153.012 40.445 154.186 40.445C155.726 40.445 157.266 40.4083 158.806 40.335C160.346 40.2617 161.336 40.2067 161.776 40.17L161.996 40.5L161.776 43.36C160.749 43.47 160.016 43.58 159.576 43.69C159.136 43.7633 158.842 43.8917 158.696 44.075C158.549 44.2583 158.476 44.5517 158.476 44.955C158.476 45.6517 158.989 48.255 160.016 52.765C161.079 57.275 161.812 60.3367 162.216 61.95H162.876C163.279 61.0333 163.976 58.9433 164.966 55.68C165.956 52.4167 166.817 49.465 167.551 46.825C167.514 46.3117 167.422 45.78 167.276 45.23C167.129 44.57 166.836 44.13 166.396 43.91C165.956 43.6533 165.186 43.5067 164.086 43.47L163.866 43.14L164.251 40.335C164.727 40.335 165.589 40.3533 166.836 40.39C168.119 40.4267 169.402 40.445 170.686 40.445C172.152 40.445 173.656 40.4083 175.196 40.335C176.772 40.2617 177.781 40.2067 178.221 40.17L178.496 40.5L178.276 43.36C177.212 43.47 176.461 43.58 176.021 43.69C175.617 43.7633 175.342 43.8917 175.196 44.075C175.049 44.2583 174.976 44.5517 174.976 44.955C174.976 45.615 175.489 48.2183 176.516 52.765C177.542 57.275 178.257 60.3367 178.661 61.95H179.376C179.889 60.74 180.879 57.715 182.346 52.875C183.812 47.9983 184.546 45.23 184.546 44.57C184.546 44.1667 184.399 43.8917 184.106 43.745C183.812 43.5617 183.262 43.47 182.456 43.47H180.861L180.641 43.14L180.971 40.28C181.411 40.3167 182.236 40.3533 183.446 40.39C184.692 40.4267 186.031 40.445 187.461 40.445L192.631 40.39L192.301 43.47C191.677 43.5433 191.201 43.7267 190.871 44.02C190.577 44.3133 190.302 44.8633 190.046 45.67L182.401 67.78L174.261 68.66C173.747 65.7267 172.556 60.8867 170.686 54.14H170.246L165.846 67.78L157.706 68.66ZM195.344 65.25C196.591 65.1033 197.434 64.7733 197.874 64.26C198.314 63.71 198.534 62.7933 198.534 61.51L198.589 45.835C198.589 44.9183 198.498 44.3133 198.314 44.02C198.131 43.69 197.746 43.525 197.159 43.525L195.839 43.58L195.509 43.14L195.894 40.335C196.481 40.335 197.599 40.3533 199.249 40.39C200.936 40.4267 202.733 40.445 204.639 40.445C211.129 40.445 215.749 40.28 218.499 39.95L218.884 40.445C218.774 40.9217 218.591 41.9667 218.334 43.58C218.114 45.1567 217.949 46.7883 217.839 48.475L213.274 48.75C213.274 48.64 213.293 48.42 213.329 48.09C213.366 47.7233 213.384 47.375 213.384 47.045C213.384 46.2383 213.256 45.67 212.999 45.34C212.743 45.01 212.248 44.79 211.514 44.68C210.781 44.5333 209.571 44.46 207.884 44.46C206.894 44.46 206.271 44.5333 206.014 44.68C205.794 44.8267 205.666 45.1933 205.629 45.78L205.354 51.995H209.424C210.084 51.995 211.019 51.9583 212.229 51.885C213.439 51.775 214.246 51.7017 214.649 51.665L215.089 52.16L214.429 56.12C214.026 56.12 213.256 56.1017 212.119 56.065C211.019 56.0283 209.846 56.01 208.599 56.01C207.609 56.01 206.473 56.1017 205.189 56.285C205.116 58.045 205.079 59.8417 205.079 61.675C205.079 62.4817 205.134 63.05 205.244 63.38C205.354 63.71 205.593 63.9483 205.959 64.095C206.326 64.205 206.949 64.26 207.829 64.26C209.663 64.26 211.001 64.15 211.844 63.93C212.688 63.6733 213.293 63.2333 213.659 62.61C214.026 61.95 214.319 60.8867 214.539 59.42L218.719 59.09L219.159 59.585C219.049 60.025 218.848 61.0517 218.554 62.665C218.298 64.2783 218.078 65.9833 217.894 67.78L217.399 68.275C216.483 68.2383 214.484 68.1833 211.404 68.11C208.361 68.0367 205.611 68 203.154 68C201.431 68 199.763 68.055 198.149 68.165C196.536 68.3117 195.491 68.4033 195.014 68.44L195.344 65.25ZM245.049 68.66C242.922 68.66 241.254 67.34 240.044 64.7L236.359 57.495H233.279L233.224 61.73C233.224 62.72 233.297 63.435 233.444 63.875C233.59 64.2783 233.865 64.5533 234.269 64.7C234.709 64.8467 235.442 64.9383 236.469 64.975L236.689 65.25L236.194 68.165C235.607 68.1283 234.562 68.0917 233.059 68.055C231.592 68.055 230.309 68.055 229.209 68.055C228.035 68.055 226.825 68.0917 225.579 68.165C224.332 68.2383 223.525 68.2933 223.159 68.33L223.544 65.14C224.79 64.9933 225.615 64.6817 226.019 64.205C226.459 63.6917 226.679 62.83 226.679 61.62L226.734 45.505C226.734 44.735 226.624 44.2217 226.404 43.965C226.22 43.6717 225.872 43.525 225.359 43.525L223.764 43.58L223.434 43.195L223.874 40.39L229.704 40.445C230.987 40.445 232.362 40.4267 233.829 40.39C235.295 40.3167 236.322 40.2617 236.909 40.225C240.539 40.225 243.307 40.8667 245.214 42.15C247.12 43.4333 248.074 45.3033 248.074 47.76C248.074 49.4467 247.56 50.9867 246.534 52.38C245.507 53.7733 244.022 54.9467 242.079 55.9L245.764 61.565C246.644 62.8483 247.469 63.7833 248.239 64.37C249.009 64.9567 249.834 65.25 250.714 65.25L251.099 65.745L250.714 68.22L245.049 68.66ZM237.349 53.645C239.805 52.765 241.034 51.0783 241.034 48.585C241.034 47.1183 240.502 46.0367 239.439 45.34C238.375 44.6067 236.744 44.24 234.544 44.24C234.25 44.24 234.049 44.3133 233.939 44.46C233.865 44.57 233.81 44.8267 233.774 45.23C233.554 48.2367 233.444 50.895 233.444 53.205L237.349 53.645ZM257.243 65.14C258.636 65.03 259.644 64.865 260.268 64.645C260.891 64.3883 261.294 64.0033 261.478 63.49C261.698 62.94 261.808 62.0783 261.808 60.905V44.295C260.341 44.3317 259.278 44.4783 258.618 44.735C257.994 44.9917 257.536 45.4867 257.243 46.22C256.949 46.9533 256.693 48.2 256.473 49.96L252.293 50.235C252.329 49.6117 252.403 48.2917 252.513 46.275C252.659 44.2217 252.751 42.2967 252.788 40.5L253.338 39.95L258.013 40.445H272.203L276.988 39.95L277.538 40.5C277.574 42.37 277.629 44.2767 277.703 46.22C277.813 48.1633 277.886 49.41 277.923 49.96L273.743 50.235C273.523 48.3283 273.266 46.99 272.973 46.22C272.716 45.45 272.294 44.955 271.708 44.735C271.121 44.4783 270.131 44.3317 268.738 44.295C268.444 48.475 268.298 54.36 268.298 61.95C268.298 63.0133 268.481 63.765 268.848 64.205C269.214 64.645 269.856 64.865 270.773 64.865C271.359 64.865 271.873 64.8467 272.313 64.81C272.753 64.7733 273.028 64.755 273.138 64.755L273.303 64.975L272.918 68.22C272.294 68.1833 271.158 68.1283 269.508 68.055C267.858 68.0183 266.281 68 264.778 68C263.714 68 262.284 68.0367 260.488 68.11C258.691 68.22 257.499 68.2933 256.913 68.33L257.243 65.14ZM285.579 65.25C286.789 65.1033 287.688 64.92 288.274 64.7C288.861 64.4433 289.246 64.0767 289.429 63.6C289.649 63.0867 289.759 62.3533 289.759 61.4V60.245C289.759 59.5483 289.668 58.8883 289.484 58.265C289.301 57.6417 288.971 56.89 288.494 56.01L283.929 47.76C283.269 46.5133 282.591 45.5967 281.894 45.01C281.198 44.4233 280.208 43.965 278.924 43.635L278.759 43.415L279.199 40.39C279.676 40.39 280.519 40.4083 281.729 40.445C282.939 40.4817 284.113 40.5 285.249 40.5C286.203 40.5 287.523 40.4633 289.209 40.39C290.933 40.28 292.069 40.2067 292.619 40.17L292.894 40.61L292.619 43.305C291.666 43.3417 291.006 43.4517 290.639 43.635C290.273 43.8183 290.089 44.13 290.089 44.57C290.089 44.9 290.474 45.89 291.244 47.54C292.014 49.19 292.473 50.18 292.619 50.51L293.664 52.71H294.104L297.349 46.22C297.826 45.3767 298.064 44.7167 298.064 44.24C298.064 43.9467 297.881 43.7267 297.514 43.58C297.184 43.4333 296.634 43.3417 295.864 43.305L295.699 43.085L296.029 40.335L298.614 40.39C300.228 40.4633 301.456 40.5 302.299 40.5C303.399 40.5 304.389 40.4817 305.269 40.445C306.186 40.4083 306.791 40.3717 307.084 40.335L307.249 40.665L306.919 43.525C305.746 43.9283 304.774 44.5333 304.004 45.34C303.234 46.1467 302.391 47.3567 301.474 48.97L297.184 56.67C296.818 57.3667 296.598 58.0633 296.524 58.76C296.451 59.42 296.396 60.5383 296.359 62.115C296.359 63.1417 296.506 63.8567 296.799 64.26C297.129 64.6633 297.716 64.865 298.559 64.865C299.073 64.865 299.531 64.8467 299.934 64.81C300.374 64.7733 300.668 64.755 300.814 64.755L300.979 64.975L300.539 68.22C299.953 68.1833 298.871 68.1283 297.294 68.055C295.718 68.0183 294.178 68 292.674 68C291.574 68 290.181 68.055 288.494 68.165C286.844 68.3117 285.763 68.4033 285.249 68.44L285.579 65.25Z" fill="black"/>
</svg>
